Coordinates
version=1
nRows=24
nColumns=26
inDegrees=yes

Units are S.I. units (second, meters, Newtons, ...)
Angles are in degrees.

endheader
time	pelvis_tilt	pelvis_list	pelvis_rotation	pelvis_tx	pelvis_ty	pelvis_tz	hip_flexion_r	hip_adduction_r	hip_rotation_r	knee_angle_r	knee_angle_r_beta	ankle_angle_r	subtalar_angle_r	mtp_angle_r	hip_flexion_l	hip_adduction_l	hip_rotation_l	knee_angle_l	knee_angle_l_beta	ankle_angle_l	subtalar_angle_l	mtp_angle_l	lumbar_extension	lumbar_bending	lumbar_rotation
     69.38423775	    -19.76825755	      1.34270831	      4.29474886	      0.32295410	      1.01834494	      0.22129390	      9.24462804	      1.13834564	     -2.85018569	     21.96582039	     21.96582039	     -0.44961194	     -8.24596229	      0.00000000	     48.50287282	      3.84373839	      3.39534648	     65.32911133	     65.32911133	     -3.22982756	    -16.36924674	      0.00000000	      5.15104635	     -3.10753214	      6.69876364
     69.39423775	    -19.90492977	      1.70729113	      4.64292116	      0.32616009	      1.02700782	      0.22086553	      6.60248389	      0.62659921	     -3.88585117	     18.77867016	     18.77867016	     -5.32424649	     -7.13547939	      0.00000000	     47.89849916	      4.01707746	      2.13709046	     59.08462034	     59.08462034	     -3.42560024	    -16.57297994	      0.00000000	      5.57669143	     -3.87522699	      6.98297056
     69.40423775	    -19.90555699	      1.88514429	      4.86968974	      0.32952011	      1.03512699	      0.22068596	      3.87455856	      0.44013694	     -4.53868629	     15.55027475	     15.55027475	     -9.89049016	     -6.27486950	      0.00000000	     46.91508227	      3.96771561	      0.85733977	     52.49654187	     52.49654187	     -3.49043782	    -16.28699560	      0.00000000	      5.86574733	     -4.40391352	      7.34354532
     69.41423775	    -19.90612886	      1.89608596	      4.97922781	      0.33283876	      1.04220686	      0.22061675	      1.43770291	      0.46784905	     -4.88528123	     12.87976160	     12.87976160	    -13.34086057	     -5.45394848	      0.00000000	     45.72304566	      3.77349441	     -0.41650863	     45.62463833	     45.62463833	     -3.38836290	    -15.43495052	      0.00000000	      6.18768398	     -4.69436133	      7.72660785
     69.42423775	    -20.03494686	      1.69057998	      4.96420642	      0.33570475	      1.04792416	      0.22085467	     -0.32755173	      0.74056534	     -4.86314779	     11.37952704	     11.37952704	    -15.63841142	     -5.11888425	      0.00000000	     44.51595357	      3.44101419	     -1.59994626	     38.54319010	     38.54319010	     -3.24858005	    -14.11130833	      0.00000000	      6.65736428	     -4.72489297	      8.08118268
     69.43423775	    -20.31992431	      1.17649195	      4.87519465	      0.33810975	      1.05185767	      0.22110986	     -1.31784407	      1.32388818	     -4.63256237	     11.38953504	     11.38953504	    -16.72444753	     -5.44843080	      0.00000000	     43.56007411	      2.92393437	     -2.56969027	     31.72786461	     31.72786461	     -2.76077594	    -12.26998207	      0.00000000	      7.33323931	     -4.35593271	      8.42405780
     69.44423775	    -20.24405981	      0.65692597	      4.61570473	      0.34058881	      1.05471572	      0.22133566	     -2.31135408	      1.97642043	     -3.66102090	     12.60366378	     12.60366378	    -16.43270529	     -6.36338723	      0.00000000	     42.36099949	      2.35060365	     -3.53949409	     25.48051775	     25.48051775	     -1.92319245	     -9.89587223	      0.00000000	      7.57769335	     -3.86702889	      8.68875984
     69.45423775	    -20.10249684	     -0.05573280	      4.51511329	      0.34290891	      1.05625245	      0.22102525	     -3.10293233	      2.84735455	     -2.49886720	     14.56248677	     14.56248677	    -15.77899995	     -7.24240536	      0.00000000	     41.34933491	      1.78899819	     -4.06859169	     20.07069719	     20.07069719	     -0.70894602	     -7.23568795	      0.00000000	      7.74980543	     -3.12520704	      8.66004111
     69.46423775	    -19.51897295	     -0.65782527	      4.41296436	      0.34520873	      1.05738881	      0.22037670	     -4.17817514	      3.62578198	     -1.10582414	     16.95559647	     16.95559647	    -15.67486595	     -8.01564794	      0.00000000	     40.10661297	      1.20732953	     -5.44734115	     15.65322472	     15.65322472	      1.03244376	     -3.60651293	      0.00000000	      7.33560613	     -2.39385780	      8.46888018
     69.47423775	    -19.00914581	     -1.17039685	      4.52610369	      0.34700384	      1.05760592	      0.21923837	     -4.89087883	      4.28262594	     -0.08157986	     19.92249567	     19.92249567	    -15.38308663	     -8.56941006	      0.00000000	     39.06742266	      0.94898931	     -6.47000438	     11.98129326	     11.98129326	      2.41358829	     -0.70357735	      0.00000000	      6.93021999	     -1.81211875	      7.97792041
     69.48423775	    -18.45353582	     -1.54930358	      4.72359639	      0.34846160	      1.05719147	      0.21797193	     -5.40330974	      4.79566099	      0.68103613	     23.33268879	     23.33268879	    -14.89051999	     -8.86924356	      0.00000000	     38.22561232	      0.80535513	     -7.60491855	      9.47043609	      9.47043609	      4.06900084	      2.40601817	      0.00000000	      6.40807441	     -1.40770096	      7.35477852
     69.49423775	    -18.03430244	     -1.75024163	      4.99259182	      0.34930391	      1.05606794	      0.21671578	     -5.46166027	      5.14616109	      1.27862899	     27.20526772	     27.20526772	    -14.58633847	     -9.54872772	      0.00000000	     37.58257656	      0.94910452	     -7.85093084	      7.71881198	      7.71881198	      5.13687305	      4.04138589	      0.00000000	      5.96383118	     -1.26075671	      6.72242438
     69.50423775	    -17.59741253	     -1.80837530	      5.16413573	      0.34987616	      1.05405420	      0.21581281	     -5.20432902	      5.32167977	      1.73324643	     31.62432711	     31.62432711	    -14.17766352	     -9.89472344	      0.00000000	     37.15789612	      1.05439342	     -8.78503708	      7.16206035	      7.16206035	      6.38844097	      5.98219888	      0.00000000	      5.46028531	     -1.29222429	      6.29165211
     69.51423775	    -17.16284204	     -1.96493677	      5.47208195	      0.35017890	      1.05102171	      0.21530482	     -4.66965095	      5.72861236	      2.14639949	     36.34223908	     36.34223908	    -14.45875427	    -11.02587269	      0.00000000	     36.73750810	      1.17518384	     -8.53072438	      7.20370944	      7.20370944	      7.05292204	      6.28535031	      0.00000000	      4.94346433	     -1.29786693	      5.73368332
     69.52423775	    -16.49999595	     -2.07595727	      5.88959370	      0.35041944	      1.04723922	      0.21500828	     -4.14933228	      6.10797994	      2.21236651	     41.29415873	     41.29415873	    -14.88706226	    -12.14098090	      0.00000000	     36.15180429	      1.30972281	     -7.65296008	      8.05885862	      8.05885862	      7.68580475	      6.18663754	      0.00000000	      4.14454775	     -1.38770147	      5.13081147
     69.53423775	    -16.37953531	     -2.29181967	      6.35292560	      0.34977119	      1.04179008	      0.21461178	     -2.66571148	      6.43924706	      1.83600889	     46.66483110	     46.66483110	    -15.35559805	    -13.36447089	      0.00000000	     36.14857975	      1.47530816	     -5.78969174	      9.35035413	      9.35035413	      7.77673853	      5.17212927	      0.00000000	      3.92177231	     -1.37850268	      4.41068273
     69.54423775	    -15.98322319	     -2.21826276	      6.91931786	      0.34901913	      1.03605682	      0.21389676	     -1.41264092	      6.34002122	      1.07083287	     51.96738248	     51.96738248	    -15.62962937	    -14.64735007	      0.00000000	     35.71822169	      1.97541444	     -3.25629553	     10.97916876	     10.97916876	      7.49980324	      3.65452443	      0.00000000	      3.30286262	     -1.64505621	      3.56156932
     69.55423775	    -15.50184970	     -1.77474228	      7.50228896	      0.34813913	      1.02992646	      0.21279846	     -0.21210512	      5.69150403	      0.11987179	     57.22214113	     57.22214113	    -15.56858966	    -15.96466113	      0.00000000	     35.35122305	      2.77356635	     -1.41531151	     13.41771619	     13.41771619	      6.42559088	      2.51663793	      0.00000000	      2.49139596	     -2.26723863	      2.60538007
     69.56423775	    -15.13527637	     -1.25768611	      7.94605144	      0.34695968	      1.02296103	      0.21139519	      1.21601059	      4.79529028	     -0.75377545	     62.45278162	     62.45278162	    -15.23109136	    -17.25541311	      0.00000000	     35.24143301	      3.63040466	     -0.37486742	     16.20312832	     16.20312832	      4.25914247	      1.00946448	      0.00000000	      1.77543264	     -2.85061454	      1.78542729
     69.57423775	    -14.99639799	     -0.56751799	      8.24553332	      0.34514077	      1.01521031	      0.20996438	      3.02362697	      3.57129331	     -1.45515584	     67.70842735	     67.70842735	    -14.65228469	    -18.56359137	      0.00000000	     35.47867804	      4.63769605	      0.15641719	     19.07718989	     19.07718989	      1.69114379	     -1.15231706	      0.00000000	      1.22338948	     -3.59472375	      1.07751149
     69.58423775	    -15.17167286	      0.32879353	      8.47398890	      0.34228954	      1.00692399	      0.20843618	      5.39958433	      1.98603027	     -1.91343711	     73.05845996	     73.05845996	    -13.77187129	    -19.43051821	      0.00000000	     36.33608527	      5.99297586	      1.03878153	     22.62030058	     22.62030058	      0.27184756	     -4.84870883	      0.00000000	      0.86912594	     -4.55894588	      0.25701732
     69.59423775	    -15.54732073	      1.18581018	      8.52544260	      0.33871316	      0.99827264	      0.20737278	      8.22973691	      0.48638019	     -1.87378205	     78.33090995	     78.33090995	    -12.81489005	    -20.03830468	      0.00000000	     37.99046905	      7.18473495	      1.36387667	     27.73714887	     27.73714887	      1.85155494	     -7.74120951	      0.00000000	      0.66273435	     -5.49218299	     -0.45515431
     69.60423775	    -15.75442613	      1.78252559	      8.35881760	      0.33515781	      0.99001856	      0.20693716	     11.08019108	     -0.51495368	     -1.32989367	     83.25112123	     83.25112123	    -11.77356574	    -20.13219425	      0.00000000	     39.61696747	      7.91112179	      1.46101121	     33.36724862	     33.36724862	      4.27286371	    -10.11694685	      0.00000000	      0.30252429	     -6.11917011	     -0.95911543
     69.61423775	    -15.73876363	      2.41182293	      7.99451660	      0.33195964	      0.98295046	      0.20680667	     13.80702698	     -1.41061929	     -0.42860615	     87.70649874	     87.70649874	    -10.62263275	    -19.76958435	      0.00000000	     40.44484958	      8.43398059	      1.45806159	     38.02868290	     38.02868290	      6.42971142	    -11.60860150	      0.00000000	     -0.26733476	     -6.72239250	     -1.36279273
